<?xml version="1.0" standalone="no"?>
<!DOCTYPE svg PUBLIC "-//W3C//DTD SVG 20010904//EN"
 "http://www.w3.org/TR/2001/REC-SVG-20010904/DTD/svg10.dtd">
<svg version="1.0" xmlns="http://www.w3.org/2000/svg"
 width="500.000000pt" height="500.000000pt" viewBox="0 0 500.000000 500.000000"
 preserveAspectRatio="xMidYMid meet">
<metadata>
Created by potrace 1.14, written by Peter Selinger 2001-2017
</metadata>
<g transform="translate(0.000000,500.000000) scale(0.100000,-0.100000)"
fill="#000000" stroke="none">
<path d="M2690 4622 c36 -60 64 -131 92 -235 21 -80 22 -99 23 -742 1 -598 0
-665 -16 -711 -19 -56 -64 -134 -85 -147 -10 -6 -5 -20 23 -58 20 -28 46 -78
58 -112 21 -62 21 -62 20 -992 -1 -921 -1 -931 -23 -1012 -28 -104 -56 -175
-93 -236 l-29 -47 98 5 c132 7 231 15 342 30 19 3 55 7 80 10 25 3 70 10 100
15 30 5 71 12 90 15 236 37 497 110 687 191 349 149 618 427 678 700 24 103
17 1071 -7 1152 -43 141 -107 243 -227 362 -105 105 -247 201 -412 278 -185
88 -323 132 -574 186 -121 26 -149 31 -240 42 l-50 6 1 552 c1 303 2 555 3
559 0 5 4 6 9 4 4 -3 32 -8 62 -12 30 -3 62 -8 70 -10 8 -2 30 -7 48 -10 79
-13 102 -17 192 -37 300 -64 525 -200 656 -395 60 -91 85 -174 89 -297 4 -147
-33 -278 -106 -368 -16 -21 -28 -38 -26 -38 2 0 28 -4 58 -10 30 -5 70 -12 89
-14 19 -3 62 -10 95 -16 33 -6 74 -13 90 -16 17 -2 67 -13 113 -23 l82 -18 0
236 c-1 313 -17 384 -125 546 -110 166 -272 303 -480 407 -114 57 -324 137
-404 153 -9 2 -62 15 -117 28 -56 14 -128 31 -160 36 -33 6 -70 13 -84 16 -13
3 -42 7 -65 10 -22 3 -67 10 -100 15 -81 13 -123 18 -300 35 -27 3 -96 7 -152
10 l-102 4 29 -47z m789 -1508 c136 -20 287 -83 431 -179 231 -155 383 -358
433 -580 11 -47 14 -174 12 -595 -1 -519 -2 -537 -23 -601 -93 -281 -409 -485
-862 -555 -19 -3 -53 -9 -75 -14 -22 -5 -69 -11 -105 -15 l-65 -7 1 1274 c1
700 2 1277 3 1281 1 8 180 1 250 -9z"/>
<path d="M1637 4574 c-1 -1 -40 -5 -87 -8 -294 -24 -781 -182 -1241 -403 l-56
-27 43 -53 c82 -100 82 -104 83 -695 l1 -518 -31 -62 c-17 -34 -41 -69 -52
-79 l-21 -17 33 -38 c75 -85 71 -38 71 -847 0 -632 -3 -732 -16 -779 -20 -65
-58 -132 -90 -157 -30 -23 -27 -26 91 -81 178 -84 533 -225 542 -216 2 1 -10
27 -27 57 -41 76 -87 224 -96 306 -8 76 -8 292 0 300 3 3 58 -7 123 -21 160
-36 165 -37 193 -42 83 -15 138 -25 160 -29 14 -3 43 -7 65 -10 22 -3 60 -8
85 -11 25 -4 99 -7 165 -8 255 -4 448 58 578 187 73 72 110 129 142 226 36
104 43 219 43 644 0 434 1 441 72 535 l36 47 -28 30 c-15 17 -40 60 -54 97
l-26 67 -3 533 c-2 293 -5 544 -8 558 -29 151 -76 247 -162 334 -106 107 -242
163 -428 175 -54 3 -99 5 -100 5z m-45 -239 c84 -21 137 -49 191 -102 61 -59
92 -111 113 -193 16 -60 18 -159 18 -1185 l0 -1120 -22 -71 c-21 -70 -83 -168
-131 -206 -104 -86 -232 -121 -425 -117 -102 3 -147 7 -231 23 -16 3 -57 11
-90 16 -33 6 -94 18 -135 27 -41 8 -81 16 -87 16 -7 0 -13 3 -14 6 -1 8 -1
2732 0 2754 1 15 30 33 66 41 6 1 42 13 80 25 148 47 343 92 425 98 47 3 86 6
88 8 6 5 101 -7 154 -20z"/>
</g>
</svg>
